<?xml version="1.0" encoding="UTF-8"?>
<svg id="Layer_1" data-name="Layer 1" xmlns="http://www.w3.org/2000/svg" viewBox="0 0 1167.05 1305.39">
  <defs>
    <style>
      .cls-1 {
        fill: #fff;
      }
    </style>
  </defs>
  <path class="cls-1" d="M332.09,646.94c-14.12-14.16-39.94-44.35-82.69-58.16v178.32c32-30.72,59.76-74.23,82.69-120.17Z"/>
  <path class="cls-1" d="M825.34,811.94c-13.98,10.67-31.44,16.98-50.34,16.98-16.63,0-32.05-4.88-45.11-13.37-11.28,8.62-25.13,13.37-39.93,13.37-37.28,0-67.67-30.35-67.67-67.67v-50.43c0-18.59-15.16-33.75-33.75-33.75s-33.75,15.15-33.75,33.75v114.92h-49.56v-169.09c-7.88,4.96-15.68,9.19-23.39,12.72v156.38h-49.51v-143.18c-19.55,1.44-38.84-1.79-57.79-9.71-31.35,61.94-72.86,122.67-125.15,157.68v83.72h663.59v-88.57l-57.37-.02c-12.06,0-22.86-5.31-30.27-13.72Z"/>
  <path class="cls-1" d="M577.47,467.66c-5.88.22-22.69,10.36-22.69,52.78v26.87c37.45-43.59,35.53-79.65,22.69-79.65Z"/>
  <path class="cls-1" d="M398.84,467.66h83v145.32c7.45-4.83,15.24-10.58,23.39-17.29v-75.25c0-80.87,47.29-102.25,72.24-102.25,23.12,0,43.2,13.76,52.43,35.93,7.88,19.07,18.03,71.5-57.61,147.19-6.01,5.97-11.8,11.58-17.51,16.81v16.68c10.28-4.62,21.69-7.19,33.75-7.19,45.85,0,83.17,37.32,83.17,83.22v50.43c.26,15.63,16.68,21.73,26.34,16.16-4.09-9.75-6.27-20.47-6.27-31.7v-34.88c0-45.9,37.32-83.22,83.22-83.22,14.68,0,28.48,3.79,40.46,10.54v-10.8h45.59v129.16c0,15.09,10.2,19.73,16.63,19.73h35.3V250.66H249.39v287.66c36.52,9.3,72.53,29.47,104.25,61.76,21.08-49.6,36.32-97.94,45.2-132.43Z"/>
  <path class="cls-1" d="M432.33,632.92v-103.64c-8.84,27.83-21.07,62.49-36.84,98.81,14.59,5.7,26.91,6.14,36.84,4.83Z"/>
  <path class="cls-1" d="M775,677.07c-18.64,0-33.79,15.15-33.79,33.75v34.88c0,18.59,15.15,33.75,33.79,33.75s33.75-15.16,33.75-33.75v-34.88c0-18.59-15.11-33.75-33.75-33.75Z"/>
  <polygon class="cls-1" points="342.49 1055.64 912.98 1055.64 912.98 936.29 249.39 936.29 342.49 1055.64"/>
</svg>